<?xml version="1.0" encoding="UTF-8" standalone="no"?>
<svg
   xmlns:dc="http://purl.org/dc/elements/1.1/"
   xmlns:cc="http://creativecommons.org/ns#"
   xmlns:rdf="http://www.w3.org/1999/02/22-rdf-syntax-ns#"
   xmlns:svg="http://www.w3.org/2000/svg"
   xmlns="http://www.w3.org/2000/svg"
   xmlns:sodipodi="http://sodipodi.sourceforge.net/DTD/sodipodi-0.dtd"
   xmlns:inkscape="http://www.inkscape.org/namespaces/inkscape"
   fill="transparent"
   stroke="orange"
   stroke-width="3"
   viewBox="0 0 450 200"
   id="svg2"
   version="1.1"
   inkscape:version="0.91 r13725"
   sodipodi:docname="image.svg">
  <metadata
     id="metadata10">
    <rdf:RDF>
      <cc:Work
         rdf:about="">
        <dc:format>image/svg+xml</dc:format>
        <dc:type
           rdf:resource="http://purl.org/dc/dcmitype/StillImage" />
      </cc:Work>
    </rdf:RDF>
  </metadata>
  <defs
     id="defs8" />
  <sodipodi:namedview
     pagecolor="#ffffff"
     bordercolor="#666666"
     borderopacity="1"
     objecttolerance="10"
     gridtolerance="10"
     guidetolerance="10"
     inkscape:pageopacity="0"
     inkscape:pageshadow="2"
     inkscape:window-width="721"
     inkscape:window-height="480"
     id="namedview6"
     showgrid="false"
     inkscape:zoom="0.85777778"
     inkscape:cx="2.3840019"
     inkscape:cy="98.834197"
     inkscape:window-x="0"
     inkscape:window-y="0"
     inkscape:window-maximized="0"
     inkscape:current-layer="svg2" />
  <path
     d="m 3.3409434,2.0582321 c 0.7470497,-1.03154 2.913494,-0.82526 2.913494,-0.82526 l 62.1794346,0 c 0,0 1.170377,0.0687 1.743117,0.41265 0.547836,0.34384 1.319786,1.30659 1.319786,1.30659 L 101.62778,48.133312 c 0,0 0.44823,0.96274 0.1743,1.65043 0,0 -0.49803,0.55014 -0.99606,0.55014 -34.314484,-0.10316 -95.4480515,0 -95.4480515,0 0,0 -1.5688045,0.10316 -2.1415425,-0.68766 -0.5727289,-0.79085 -0.423319,-2.47569 -0.423319,-2.47569 l 0,-41.8801599 c 0,0 -0.1992132,-2.2006 0.5727381,-3.23214 z"
     id="path4"
     inkscape:connector-curvature="0" />
</svg>
