<?xml version="1.0" encoding="UTF-8" standalone="no"?>
<svg
   xmlns="http://www.w3.org/2000/svg"
   fill="transparent"
   stroke="orange"
   stroke-width="3"
   viewBox="0 0 450 200">
  <path
     d="m 3.3409434,2.0582321 c 0.7470497,-1.03154 2.913494,-0.82526 2.913494,-0.82526 l 62.1794346,0 c 0,0 1.170377,0.0687 1.743117,0.41265 0.547836,0.34384 1.319786,1.30659 1.319786,1.30659 L 101.62778,48.133312 c 0,0 0.44823,0.96274 0.1743,1.65043 0,0 -0.49803,0.55014 -0.99606,0.55014 -34.314484,-0.10316 -95.4480515,0 -95.4480515,0 0,0 -1.5688045,0.10316 -2.1415425,-0.68766 -0.5727289,-0.79085 -0.423319,-2.47569 -0.423319,-2.47569 l 0,-41.8801599 c 0,0 -0.1992132,-2.2006 0.5727381,-3.23214 z"/>
</svg>